<mxfile host="app.diagrams.net" agent="Mozilla/5.0 (Windows NT 10.0; Win64; x64) AppleWebKit/537.36 (KHTML, like Gecko) Chrome/129.0.0.0 Safari/537.36" version="24.7.16">
  <diagram name="Trang-1" id="O0jNxCuakli3viS6tQqU">
    <mxGraphModel dx="1713" dy="1463" grid="0" gridSize="10" guides="1" tooltips="1" connect="1" arrows="1" fold="1" page="0" pageScale="1" pageWidth="827" pageHeight="1169" math="0" shadow="0">
      <root>
        <mxCell id="0" />
        <mxCell id="1" parent="0" />
        <mxCell id="DzgOEgcIxK9TmvBQPqR1-12" style="edgeStyle=orthogonalEdgeStyle;rounded=0;orthogonalLoop=1;jettySize=auto;html=1;exitX=1;exitY=0.5;exitDx=0;exitDy=0;entryX=0;entryY=0.5;entryDx=0;entryDy=0;endArrow=none;endFill=0;labelBackgroundColor=none;fontColor=default;strokeColor=#182E3E;" parent="1" source="DzgOEgcIxK9TmvBQPqR1-1" target="DzgOEgcIxK9TmvBQPqR1-10" edge="1">
          <mxGeometry relative="1" as="geometry" />
        </mxCell>
        <mxCell id="DzgOEgcIxK9TmvBQPqR1-32" style="edgeStyle=orthogonalEdgeStyle;rounded=0;orthogonalLoop=1;jettySize=auto;html=1;exitX=1;exitY=1;exitDx=0;exitDy=0;entryX=0;entryY=0.5;entryDx=0;entryDy=0;endArrow=none;endFill=0;labelBackgroundColor=none;fontColor=default;strokeColor=#182E3E;" parent="1" source="DzgOEgcIxK9TmvBQPqR1-1" target="DzgOEgcIxK9TmvBQPqR1-30" edge="1">
          <mxGeometry relative="1" as="geometry" />
        </mxCell>
        <mxCell id="DzgOEgcIxK9TmvBQPqR1-1" value="Departments&amp;nbsp;" style="rounded=0;whiteSpace=wrap;html=1;labelBackgroundColor=none;fillColor=#d5e8d4;strokeColor=#82b366;" parent="1" vertex="1">
          <mxGeometry x="-36" y="-228" width="120" height="60" as="geometry" />
        </mxCell>
        <mxCell id="DzgOEgcIxK9TmvBQPqR1-9" style="rounded=0;orthogonalLoop=1;jettySize=auto;html=1;exitX=1;exitY=0.5;exitDx=0;exitDy=0;endArrow=none;endFill=0;entryX=0;entryY=0.5;entryDx=0;entryDy=0;labelBackgroundColor=none;fontColor=default;strokeColor=#182E3E;" parent="1" source="DzgOEgcIxK9TmvBQPqR1-2" target="DzgOEgcIxK9TmvBQPqR1-1" edge="1">
          <mxGeometry relative="1" as="geometry" />
        </mxCell>
        <mxCell id="DzgOEgcIxK9TmvBQPqR1-2" value="Office number" style="ellipse;whiteSpace=wrap;html=1;labelBackgroundColor=none;fillColor=#F5AB50;strokeColor=#909090;fontColor=#1A1A1A;rounded=0;" parent="1" vertex="1">
          <mxGeometry x="-222" y="-312" width="82" height="46" as="geometry" />
        </mxCell>
        <mxCell id="DzgOEgcIxK9TmvBQPqR1-7" style="rounded=0;orthogonalLoop=1;jettySize=auto;html=1;exitX=0.5;exitY=1;exitDx=0;exitDy=0;endArrow=none;endFill=0;entryX=0;entryY=0.5;entryDx=0;entryDy=0;labelBackgroundColor=none;fontColor=default;strokeColor=#182E3E;" parent="1" source="DzgOEgcIxK9TmvBQPqR1-4" target="DzgOEgcIxK9TmvBQPqR1-1" edge="1">
          <mxGeometry relative="1" as="geometry" />
        </mxCell>
        <mxCell id="DzgOEgcIxK9TmvBQPqR1-4" value="Department name" style="ellipse;whiteSpace=wrap;html=1;labelBackgroundColor=none;fillColor=#F5AB50;strokeColor=#909090;fontColor=#1A1A1A;rounded=0;" parent="1" vertex="1">
          <mxGeometry x="-222" y="-140" width="82" height="46" as="geometry" />
        </mxCell>
        <mxCell id="DzgOEgcIxK9TmvBQPqR1-8" style="rounded=0;orthogonalLoop=1;jettySize=auto;html=1;exitX=1;exitY=0.5;exitDx=0;exitDy=0;entryX=0;entryY=0.5;entryDx=0;entryDy=0;endArrow=none;endFill=0;labelBackgroundColor=none;fontColor=default;strokeColor=#182E3E;" parent="1" source="DzgOEgcIxK9TmvBQPqR1-5" target="DzgOEgcIxK9TmvBQPqR1-1" edge="1">
          <mxGeometry relative="1" as="geometry" />
        </mxCell>
        <mxCell id="DzgOEgcIxK9TmvBQPqR1-5" value="&lt;b&gt;&lt;u&gt;Department code&lt;/u&gt;&lt;/b&gt;" style="ellipse;whiteSpace=wrap;html=1;labelBackgroundColor=none;fillColor=#F5AB50;strokeColor=#909090;fontColor=#1A1A1A;rounded=0;" parent="1" vertex="1">
          <mxGeometry x="-222" y="-221" width="82" height="46" as="geometry" />
        </mxCell>
        <mxCell id="DzgOEgcIxK9TmvBQPqR1-14" style="rounded=0;orthogonalLoop=1;jettySize=auto;html=1;exitX=0.5;exitY=1;exitDx=0;exitDy=0;entryX=0.5;entryY=0;entryDx=0;entryDy=0;endArrow=none;endFill=0;labelBackgroundColor=none;fontColor=default;strokeColor=#182E3E;" parent="1" source="DzgOEgcIxK9TmvBQPqR1-6" target="DzgOEgcIxK9TmvBQPqR1-10" edge="1">
          <mxGeometry relative="1" as="geometry" />
        </mxCell>
        <mxCell id="DzgOEgcIxK9TmvBQPqR1-6" value="start date" style="ellipse;whiteSpace=wrap;html=1;labelBackgroundColor=none;fillColor=#F5AB50;strokeColor=#909090;fontColor=#1A1A1A;rounded=0;" parent="1" vertex="1">
          <mxGeometry x="169" y="-329" width="82" height="46" as="geometry" />
        </mxCell>
        <mxCell id="DzgOEgcIxK9TmvBQPqR1-13" style="edgeStyle=orthogonalEdgeStyle;rounded=0;orthogonalLoop=1;jettySize=auto;html=1;exitX=1;exitY=0.5;exitDx=0;exitDy=0;entryX=0;entryY=0.5;entryDx=0;entryDy=0;endArrow=none;endFill=0;labelBackgroundColor=none;fontColor=default;strokeColor=#182E3E;" parent="1" source="DzgOEgcIxK9TmvBQPqR1-10" target="DzgOEgcIxK9TmvBQPqR1-11" edge="1">
          <mxGeometry relative="1" as="geometry" />
        </mxCell>
        <mxCell id="DzgOEgcIxK9TmvBQPqR1-10" value="manages" style="rhombus;whiteSpace=wrap;html=1;labelBackgroundColor=none;fillColor=#dae8fc;strokeColor=#6c8ebf;rounded=0;" parent="1" vertex="1">
          <mxGeometry x="171" y="-238" width="80" height="80" as="geometry" />
        </mxCell>
        <mxCell id="DzgOEgcIxK9TmvBQPqR1-31" style="edgeStyle=orthogonalEdgeStyle;rounded=0;orthogonalLoop=1;jettySize=auto;html=1;exitX=0;exitY=1;exitDx=0;exitDy=0;entryX=1;entryY=0.5;entryDx=0;entryDy=0;endArrow=none;endFill=0;labelBackgroundColor=none;fontColor=default;strokeColor=#182E3E;" parent="1" source="DzgOEgcIxK9TmvBQPqR1-11" target="DzgOEgcIxK9TmvBQPqR1-30" edge="1">
          <mxGeometry relative="1" as="geometry" />
        </mxCell>
        <mxCell id="rmMGKE3_KGzslC0PyUzP-12" style="rounded=0;orthogonalLoop=1;jettySize=auto;html=1;exitX=1;exitY=1;exitDx=0;exitDy=0;entryX=0;entryY=0.5;entryDx=0;entryDy=0;endArrow=none;endFill=0;" edge="1" parent="1" source="DzgOEgcIxK9TmvBQPqR1-11" target="DzgOEgcIxK9TmvBQPqR1-17">
          <mxGeometry relative="1" as="geometry" />
        </mxCell>
        <mxCell id="rmMGKE3_KGzslC0PyUzP-16" style="rounded=0;orthogonalLoop=1;jettySize=auto;html=1;exitX=1;exitY=0.5;exitDx=0;exitDy=0;entryX=0;entryY=0.5;entryDx=0;entryDy=0;endArrow=none;endFill=0;" edge="1" parent="1" source="DzgOEgcIxK9TmvBQPqR1-11" target="rmMGKE3_KGzslC0PyUzP-15">
          <mxGeometry relative="1" as="geometry" />
        </mxCell>
        <mxCell id="rmMGKE3_KGzslC0PyUzP-31" style="edgeStyle=orthogonalEdgeStyle;rounded=0;orthogonalLoop=1;jettySize=auto;html=1;exitX=0.5;exitY=1;exitDx=0;exitDy=0;curved=1;endArrow=none;endFill=0;entryX=0.5;entryY=0;entryDx=0;entryDy=0;" edge="1" parent="1" source="DzgOEgcIxK9TmvBQPqR1-11" target="rmMGKE3_KGzslC0PyUzP-32">
          <mxGeometry relative="1" as="geometry">
            <mxPoint x="523" y="365" as="targetPoint" />
          </mxGeometry>
        </mxCell>
        <mxCell id="DzgOEgcIxK9TmvBQPqR1-11" value="Particualr instructor" style="rounded=0;whiteSpace=wrap;html=1;labelBackgroundColor=none;fillColor=#d5e8d4;strokeColor=#82b366;" parent="1" vertex="1">
          <mxGeometry x="374" y="-228" width="120" height="60" as="geometry" />
        </mxCell>
        <mxCell id="DzgOEgcIxK9TmvBQPqR1-26" style="rounded=0;orthogonalLoop=1;jettySize=auto;html=1;exitX=0;exitY=0.5;exitDx=0;exitDy=0;endArrow=none;endFill=0;entryX=0.5;entryY=0;entryDx=0;entryDy=0;labelBackgroundColor=none;fontColor=default;strokeColor=#182E3E;" parent="1" source="DzgOEgcIxK9TmvBQPqR1-16" target="DzgOEgcIxK9TmvBQPqR1-11" edge="1">
          <mxGeometry relative="1" as="geometry" />
        </mxCell>
        <mxCell id="DzgOEgcIxK9TmvBQPqR1-16" value="Identification number" style="ellipse;whiteSpace=wrap;html=1;labelBackgroundColor=none;fillColor=#F5AB50;strokeColor=#909090;fontColor=#1A1A1A;rounded=0;" parent="1" vertex="1">
          <mxGeometry x="521" y="-468" width="82" height="46" as="geometry" />
        </mxCell>
        <mxCell id="DzgOEgcIxK9TmvBQPqR1-21" style="rounded=0;orthogonalLoop=1;jettySize=auto;html=1;exitX=0;exitY=1;exitDx=0;exitDy=0;endArrow=none;endFill=0;entryX=1;entryY=0;entryDx=0;entryDy=0;labelBackgroundColor=none;fontColor=default;strokeColor=#182E3E;" parent="1" source="DzgOEgcIxK9TmvBQPqR1-18" target="DzgOEgcIxK9TmvBQPqR1-11" edge="1">
          <mxGeometry relative="1" as="geometry" />
        </mxCell>
        <mxCell id="DzgOEgcIxK9TmvBQPqR1-17" value="Instructor name" style="ellipse;whiteSpace=wrap;html=1;labelBackgroundColor=none;fillColor=#F5AB50;strokeColor=#909090;fontColor=#1A1A1A;rounded=0;" parent="1" vertex="1">
          <mxGeometry x="555" y="-163" width="82" height="46" as="geometry" />
        </mxCell>
        <mxCell id="DzgOEgcIxK9TmvBQPqR1-25" style="rounded=0;orthogonalLoop=1;jettySize=auto;html=1;exitX=0;exitY=0.5;exitDx=0;exitDy=0;endArrow=none;endFill=0;labelBackgroundColor=none;fontColor=default;strokeColor=#182E3E;" parent="1" source="DzgOEgcIxK9TmvBQPqR1-19" target="DzgOEgcIxK9TmvBQPqR1-11" edge="1">
          <mxGeometry relative="1" as="geometry" />
        </mxCell>
        <mxCell id="DzgOEgcIxK9TmvBQPqR1-19" value="Startdate" style="ellipse;whiteSpace=wrap;html=1;labelBackgroundColor=none;fillColor=#F5AB50;strokeColor=#909090;fontColor=#1A1A1A;rounded=0;" parent="1" vertex="1">
          <mxGeometry x="594" y="-90" width="82" height="46" as="geometry" />
        </mxCell>
        <mxCell id="DzgOEgcIxK9TmvBQPqR1-24" style="rounded=0;orthogonalLoop=1;jettySize=auto;html=1;exitX=0;exitY=0.5;exitDx=0;exitDy=0;endArrow=none;endFill=0;labelBackgroundColor=none;fontColor=default;strokeColor=#182E3E;" parent="1" source="DzgOEgcIxK9TmvBQPqR1-20" target="DzgOEgcIxK9TmvBQPqR1-11" edge="1">
          <mxGeometry relative="1" as="geometry" />
        </mxCell>
        <mxCell id="DzgOEgcIxK9TmvBQPqR1-20" value="sex" style="ellipse;whiteSpace=wrap;html=1;labelBackgroundColor=none;fillColor=#F5AB50;strokeColor=#909090;fontColor=#1A1A1A;rounded=0;" parent="1" vertex="1">
          <mxGeometry x="586" y="-21" width="82" height="46" as="geometry" />
        </mxCell>
        <mxCell id="DzgOEgcIxK9TmvBQPqR1-30" value="arranges" style="rhombus;whiteSpace=wrap;html=1;labelBackgroundColor=none;fillColor=#dae8fc;strokeColor=#6c8ebf;rounded=0;" parent="1" vertex="1">
          <mxGeometry x="170" y="-124" width="80" height="80" as="geometry" />
        </mxCell>
        <mxCell id="DzgOEgcIxK9TmvBQPqR1-39" style="rounded=0;orthogonalLoop=1;jettySize=auto;html=1;exitX=0;exitY=1;exitDx=0;exitDy=0;entryX=0.5;entryY=0;entryDx=0;entryDy=0;endArrow=none;endFill=0;labelBackgroundColor=none;fontColor=default;strokeColor=#182E3E;" parent="1" source="DzgOEgcIxK9TmvBQPqR1-33" target="DzgOEgcIxK9TmvBQPqR1-35" edge="1">
          <mxGeometry relative="1" as="geometry" />
        </mxCell>
        <mxCell id="DzgOEgcIxK9TmvBQPqR1-40" style="edgeStyle=orthogonalEdgeStyle;rounded=0;orthogonalLoop=1;jettySize=auto;html=1;exitX=0.5;exitY=1;exitDx=0;exitDy=0;entryX=0.5;entryY=0;entryDx=0;entryDy=0;endArrow=none;endFill=0;labelBackgroundColor=none;fontColor=default;strokeColor=#182E3E;" parent="1" source="DzgOEgcIxK9TmvBQPqR1-33" target="DzgOEgcIxK9TmvBQPqR1-36" edge="1">
          <mxGeometry relative="1" as="geometry" />
        </mxCell>
        <mxCell id="DzgOEgcIxK9TmvBQPqR1-41" style="rounded=0;orthogonalLoop=1;jettySize=auto;html=1;exitX=1;exitY=1;exitDx=0;exitDy=0;entryX=0.5;entryY=0;entryDx=0;entryDy=0;endArrow=none;endFill=0;labelBackgroundColor=none;fontColor=default;strokeColor=#182E3E;" parent="1" source="DzgOEgcIxK9TmvBQPqR1-33" target="DzgOEgcIxK9TmvBQPqR1-37" edge="1">
          <mxGeometry relative="1" as="geometry" />
        </mxCell>
        <mxCell id="DzgOEgcIxK9TmvBQPqR1-33" value="Qualification" style="rounded=0;whiteSpace=wrap;html=1;labelBackgroundColor=none;fillColor=#d5e8d4;strokeColor=#82b366;" parent="1" vertex="1">
          <mxGeometry x="865" y="-218" width="120" height="60" as="geometry" />
        </mxCell>
        <mxCell id="DzgOEgcIxK9TmvBQPqR1-35" value="Specialized training&amp;nbsp;" style="ellipse;whiteSpace=wrap;html=1;labelBackgroundColor=none;fillColor=#F5AB50;strokeColor=#909090;fontColor=#1A1A1A;rounded=0;" parent="1" vertex="1">
          <mxGeometry x="783" y="-131" width="82" height="46" as="geometry" />
        </mxCell>
        <mxCell id="DzgOEgcIxK9TmvBQPqR1-36" value="Training institue&amp;nbsp;" style="ellipse;whiteSpace=wrap;html=1;labelBackgroundColor=none;fillColor=#F5AB50;strokeColor=#909090;fontColor=#1A1A1A;rounded=0;" parent="1" vertex="1">
          <mxGeometry x="890" y="-120" width="82" height="46" as="geometry" />
        </mxCell>
        <mxCell id="DzgOEgcIxK9TmvBQPqR1-37" value="Year of graduation" style="ellipse;whiteSpace=wrap;html=1;labelBackgroundColor=none;fillColor=#F5AB50;strokeColor=#909090;fontColor=#1A1A1A;rounded=0;" parent="1" vertex="1">
          <mxGeometry x="986" y="-131" width="82" height="46" as="geometry" />
        </mxCell>
        <mxCell id="DzgOEgcIxK9TmvBQPqR1-74" style="edgeStyle=orthogonalEdgeStyle;orthogonalLoop=1;jettySize=auto;html=1;exitX=1;exitY=0.5;exitDx=0;exitDy=0;entryX=0;entryY=0.5;entryDx=0;entryDy=0;strokeColor=#182E3E;fontColor=#1A1A1A;endArrow=none;endFill=0;" parent="1" source="DzgOEgcIxK9TmvBQPqR1-42" target="DzgOEgcIxK9TmvBQPqR1-73" edge="1">
          <mxGeometry relative="1" as="geometry" />
        </mxCell>
        <mxCell id="rmMGKE3_KGzslC0PyUzP-30" style="rounded=0;orthogonalLoop=1;jettySize=auto;html=1;exitX=1;exitY=1;exitDx=0;exitDy=0;entryX=0.5;entryY=0;entryDx=0;entryDy=0;endArrow=none;endFill=0;" edge="1" parent="1" source="DzgOEgcIxK9TmvBQPqR1-42" target="rmMGKE3_KGzslC0PyUzP-27">
          <mxGeometry relative="1" as="geometry" />
        </mxCell>
        <mxCell id="DzgOEgcIxK9TmvBQPqR1-42" value="Scientific subject&amp;nbsp;" style="rounded=0;whiteSpace=wrap;html=1;labelBackgroundColor=none;fillColor=#d5e8d4;strokeColor=#82b366;" parent="1" vertex="1">
          <mxGeometry x="23" y="57" width="120" height="60" as="geometry" />
        </mxCell>
        <mxCell id="DzgOEgcIxK9TmvBQPqR1-58" style="rounded=0;orthogonalLoop=1;jettySize=auto;html=1;exitX=1;exitY=0.5;exitDx=0;exitDy=0;entryX=0;entryY=0;entryDx=0;entryDy=0;endArrow=none;endFill=0;labelBackgroundColor=none;fontColor=default;strokeColor=#182E3E;" parent="1" source="DzgOEgcIxK9TmvBQPqR1-51" target="DzgOEgcIxK9TmvBQPqR1-42" edge="1">
          <mxGeometry relative="1" as="geometry" />
        </mxCell>
        <mxCell id="DzgOEgcIxK9TmvBQPqR1-51" value="Subject code" style="ellipse;whiteSpace=wrap;html=1;labelBackgroundColor=none;fillColor=#F5AB50;strokeColor=#909090;fontColor=#1A1A1A;rounded=0;" parent="1" vertex="1">
          <mxGeometry x="-226" y="8" width="82" height="46" as="geometry" />
        </mxCell>
        <mxCell id="DzgOEgcIxK9TmvBQPqR1-59" style="rounded=0;orthogonalLoop=1;jettySize=auto;html=1;exitX=1;exitY=0.5;exitDx=0;exitDy=0;entryX=0;entryY=0.5;entryDx=0;entryDy=0;endArrow=none;endFill=0;labelBackgroundColor=none;fontColor=default;strokeColor=#182E3E;" parent="1" source="DzgOEgcIxK9TmvBQPqR1-52" target="DzgOEgcIxK9TmvBQPqR1-42" edge="1">
          <mxGeometry relative="1" as="geometry" />
        </mxCell>
        <mxCell id="DzgOEgcIxK9TmvBQPqR1-52" value="Name" style="ellipse;whiteSpace=wrap;html=1;labelBackgroundColor=none;fillColor=#F5AB50;strokeColor=#909090;fontColor=#1A1A1A;rounded=0;" parent="1" vertex="1">
          <mxGeometry x="-226" y="94" width="82" height="46" as="geometry" />
        </mxCell>
        <mxCell id="DzgOEgcIxK9TmvBQPqR1-60" style="rounded=0;orthogonalLoop=1;jettySize=auto;html=1;exitX=1;exitY=0.5;exitDx=0;exitDy=0;endArrow=none;endFill=0;entryX=0;entryY=0.5;entryDx=0;entryDy=0;labelBackgroundColor=none;fontColor=default;strokeColor=#182E3E;" parent="1" source="DzgOEgcIxK9TmvBQPqR1-53" target="DzgOEgcIxK9TmvBQPqR1-42" edge="1">
          <mxGeometry relative="1" as="geometry">
            <mxPoint x="-355.941198012408" y="72.47062413832714" as="targetPoint" />
          </mxGeometry>
        </mxCell>
        <mxCell id="DzgOEgcIxK9TmvBQPqR1-53" value="Total credit" style="ellipse;whiteSpace=wrap;html=1;labelBackgroundColor=none;fillColor=#F5AB50;strokeColor=#909090;fontColor=#1A1A1A;rounded=0;" parent="1" vertex="1">
          <mxGeometry x="-232" y="186" width="82" height="46" as="geometry" />
        </mxCell>
        <mxCell id="DzgOEgcIxK9TmvBQPqR1-61" style="rounded=0;orthogonalLoop=1;jettySize=auto;html=1;exitX=0.5;exitY=0;exitDx=0;exitDy=0;entryX=0.5;entryY=1;entryDx=0;entryDy=0;endArrow=none;endFill=0;labelBackgroundColor=none;fontColor=default;strokeColor=#182E3E;" parent="1" source="DzgOEgcIxK9TmvBQPqR1-54" target="DzgOEgcIxK9TmvBQPqR1-42" edge="1">
          <mxGeometry relative="1" as="geometry" />
        </mxCell>
        <mxCell id="DzgOEgcIxK9TmvBQPqR1-54" value="Credits theory" style="ellipse;whiteSpace=wrap;html=1;labelBackgroundColor=none;fillColor=#F5AB50;strokeColor=#909090;fontColor=#1A1A1A;rounded=0;" parent="1" vertex="1">
          <mxGeometry x="-118" y="232" width="82" height="46" as="geometry" />
        </mxCell>
        <mxCell id="DzgOEgcIxK9TmvBQPqR1-62" style="rounded=0;orthogonalLoop=1;jettySize=auto;html=1;exitX=0.5;exitY=0;exitDx=0;exitDy=0;endArrow=none;endFill=0;entryX=0.5;entryY=1;entryDx=0;entryDy=0;labelBackgroundColor=none;fontColor=default;strokeColor=#182E3E;" parent="1" source="DzgOEgcIxK9TmvBQPqR1-55" target="DzgOEgcIxK9TmvBQPqR1-42" edge="1">
          <mxGeometry relative="1" as="geometry">
            <mxPoint x="-295" y="106" as="targetPoint" />
          </mxGeometry>
        </mxCell>
        <mxCell id="DzgOEgcIxK9TmvBQPqR1-55" value="Parctice credits" style="ellipse;whiteSpace=wrap;html=1;labelBackgroundColor=none;fillColor=#F5AB50;strokeColor=#909090;fontColor=#1A1A1A;rounded=0;" parent="1" vertex="1">
          <mxGeometry x="-4" y="249" width="82" height="46" as="geometry" />
        </mxCell>
        <mxCell id="DzgOEgcIxK9TmvBQPqR1-63" style="rounded=0;orthogonalLoop=1;jettySize=auto;html=1;exitX=0.5;exitY=0;exitDx=0;exitDy=0;endArrow=none;endFill=0;entryX=0.5;entryY=1;entryDx=0;entryDy=0;labelBackgroundColor=none;fontColor=default;strokeColor=#182E3E;" parent="1" source="DzgOEgcIxK9TmvBQPqR1-56" target="DzgOEgcIxK9TmvBQPqR1-42" edge="1">
          <mxGeometry relative="1" as="geometry">
            <mxPoint x="-294.76472742417286" y="103.52944048713243" as="targetPoint" />
          </mxGeometry>
        </mxCell>
        <mxCell id="DzgOEgcIxK9TmvBQPqR1-56" value="Prerequisite subjects" style="ellipse;whiteSpace=wrap;html=1;labelBackgroundColor=none;fillColor=#F5AB50;strokeColor=#909090;fontColor=#1A1A1A;rounded=0;" parent="1" vertex="1">
          <mxGeometry x="102" y="255" width="82" height="46" as="geometry" />
        </mxCell>
        <mxCell id="DzgOEgcIxK9TmvBQPqR1-75" style="edgeStyle=orthogonalEdgeStyle;orthogonalLoop=1;jettySize=auto;html=1;exitX=1;exitY=0.5;exitDx=0;exitDy=0;entryX=0.5;entryY=1;entryDx=0;entryDy=0;strokeColor=#182E3E;fontColor=#1A1A1A;endArrow=none;endFill=0;" parent="1" source="DzgOEgcIxK9TmvBQPqR1-73" target="DzgOEgcIxK9TmvBQPqR1-11" edge="1">
          <mxGeometry relative="1" as="geometry" />
        </mxCell>
        <mxCell id="DzgOEgcIxK9TmvBQPqR1-73" value="teach" style="rhombus;whiteSpace=wrap;html=1;strokeColor=#6c8ebf;fillColor=#dae8fc;" parent="1" vertex="1">
          <mxGeometry x="307" y="47" width="80" height="80" as="geometry" />
        </mxCell>
        <mxCell id="DzgOEgcIxK9TmvBQPqR1-78" style="orthogonalLoop=1;jettySize=auto;html=1;exitX=0.5;exitY=0;exitDx=0;exitDy=0;entryX=0;entryY=1;entryDx=0;entryDy=0;strokeColor=#182E3E;fontColor=#1A1A1A;endArrow=none;endFill=0;" parent="1" source="DzgOEgcIxK9TmvBQPqR1-76" target="DzgOEgcIxK9TmvBQPqR1-73" edge="1">
          <mxGeometry relative="1" as="geometry" />
        </mxCell>
        <mxCell id="DzgOEgcIxK9TmvBQPqR1-76" value="Started" style="ellipse;whiteSpace=wrap;html=1;labelBackgroundColor=none;fillColor=#F5AB50;strokeColor=#909090;fontColor=#1A1A1A;rounded=0;" parent="1" vertex="1">
          <mxGeometry x="250" y="140" width="82" height="46" as="geometry" />
        </mxCell>
        <mxCell id="DzgOEgcIxK9TmvBQPqR1-79" style="orthogonalLoop=1;jettySize=auto;html=1;exitX=0.5;exitY=0;exitDx=0;exitDy=0;entryX=1;entryY=1;entryDx=0;entryDy=0;strokeColor=#182E3E;fontColor=#1A1A1A;endArrow=none;endFill=0;" parent="1" source="DzgOEgcIxK9TmvBQPqR1-77" target="DzgOEgcIxK9TmvBQPqR1-73" edge="1">
          <mxGeometry relative="1" as="geometry" />
        </mxCell>
        <mxCell id="DzgOEgcIxK9TmvBQPqR1-77" value="stopped" style="ellipse;whiteSpace=wrap;html=1;labelBackgroundColor=none;fillColor=#F5AB50;strokeColor=#909090;fontColor=#1A1A1A;rounded=0;" parent="1" vertex="1">
          <mxGeometry x="368" y="140" width="82" height="46" as="geometry" />
        </mxCell>
        <mxCell id="DzgOEgcIxK9TmvBQPqR1-86" style="orthogonalLoop=1;jettySize=auto;html=1;exitX=1;exitY=0;exitDx=0;exitDy=0;entryX=0;entryY=0.5;entryDx=0;entryDy=0;strokeColor=#182E3E;fontColor=#1A1A1A;endArrow=none;endFill=0;" parent="1" source="DzgOEgcIxK9TmvBQPqR1-80" target="DzgOEgcIxK9TmvBQPqR1-81" edge="1">
          <mxGeometry relative="1" as="geometry" />
        </mxCell>
        <mxCell id="DzgOEgcIxK9TmvBQPqR1-87" style="orthogonalLoop=1;jettySize=auto;html=1;exitX=1;exitY=0.5;exitDx=0;exitDy=0;entryX=0;entryY=0.5;entryDx=0;entryDy=0;strokeColor=#182E3E;fontColor=#1A1A1A;endArrow=none;endFill=0;" parent="1" source="DzgOEgcIxK9TmvBQPqR1-80" target="DzgOEgcIxK9TmvBQPqR1-83" edge="1">
          <mxGeometry relative="1" as="geometry" />
        </mxCell>
        <mxCell id="DzgOEgcIxK9TmvBQPqR1-88" style="orthogonalLoop=1;jettySize=auto;html=1;exitX=1;exitY=1;exitDx=0;exitDy=0;entryX=0;entryY=0.5;entryDx=0;entryDy=0;strokeColor=#182E3E;fontColor=#1A1A1A;endArrow=none;endFill=0;" parent="1" source="DzgOEgcIxK9TmvBQPqR1-80" target="DzgOEgcIxK9TmvBQPqR1-84" edge="1">
          <mxGeometry relative="1" as="geometry" />
        </mxCell>
        <mxCell id="DzgOEgcIxK9TmvBQPqR1-80" value="Classes" style="rounded=0;whiteSpace=wrap;html=1;strokeColor=#82b366;fillColor=#d5e8d4;" parent="1" vertex="1">
          <mxGeometry x="651" y="115" width="120" height="60" as="geometry" />
        </mxCell>
        <mxCell id="DzgOEgcIxK9TmvBQPqR1-81" value="Class code" style="ellipse;whiteSpace=wrap;html=1;labelBackgroundColor=none;fillColor=#F5AB50;strokeColor=#909090;fontColor=#1A1A1A;rounded=0;" parent="1" vertex="1">
          <mxGeometry x="859" y="47" width="82" height="46" as="geometry" />
        </mxCell>
        <mxCell id="DzgOEgcIxK9TmvBQPqR1-83" value="Coursework program" style="ellipse;whiteSpace=wrap;html=1;labelBackgroundColor=none;fillColor=#F5AB50;strokeColor=#909090;fontColor=#1A1A1A;rounded=0;" parent="1" vertex="1">
          <mxGeometry x="856" y="122" width="82" height="46" as="geometry" />
        </mxCell>
        <mxCell id="DzgOEgcIxK9TmvBQPqR1-84" value="academic supervisor" style="ellipse;whiteSpace=wrap;html=1;labelBackgroundColor=none;fillColor=#F5AB50;strokeColor=#909090;fontColor=#1A1A1A;rounded=0;" parent="1" vertex="1">
          <mxGeometry x="856" y="201" width="82" height="46" as="geometry" />
        </mxCell>
        <mxCell id="rmMGKE3_KGzslC0PyUzP-34" style="rounded=0;orthogonalLoop=1;jettySize=auto;html=1;exitX=0.5;exitY=1;exitDx=0;exitDy=0;endArrow=none;endFill=0;entryX=0.5;entryY=0;entryDx=0;entryDy=0;" edge="1" parent="1" source="DzgOEgcIxK9TmvBQPqR1-89" target="rmMGKE3_KGzslC0PyUzP-35">
          <mxGeometry relative="1" as="geometry">
            <mxPoint x="648.9999694824219" y="655.9999771118164" as="targetPoint" />
          </mxGeometry>
        </mxCell>
        <mxCell id="DzgOEgcIxK9TmvBQPqR1-89" value="Students" style="rounded=0;whiteSpace=wrap;html=1;strokeColor=#82b366;fillColor=#d5e8d4;" parent="1" vertex="1">
          <mxGeometry x="631.5" y="515" width="120" height="60" as="geometry" />
        </mxCell>
        <mxCell id="DzgOEgcIxK9TmvBQPqR1-114" style="orthogonalLoop=1;jettySize=auto;html=1;exitX=0;exitY=0.5;exitDx=0;exitDy=0;entryX=0.5;entryY=1;entryDx=0;entryDy=0;strokeColor=#182E3E;fontColor=#1A1A1A;endArrow=none;endFill=0;" parent="1" source="DzgOEgcIxK9TmvBQPqR1-90" target="DzgOEgcIxK9TmvBQPqR1-89" edge="1">
          <mxGeometry relative="1" as="geometry" />
        </mxCell>
        <mxCell id="DzgOEgcIxK9TmvBQPqR1-90" value="Name" style="ellipse;whiteSpace=wrap;html=1;labelBackgroundColor=none;fillColor=#F5AB50;strokeColor=#909090;fontColor=#1A1A1A;rounded=0;" parent="1" vertex="1">
          <mxGeometry x="914" y="740" width="82" height="46" as="geometry" />
        </mxCell>
        <mxCell id="DzgOEgcIxK9TmvBQPqR1-112" style="orthogonalLoop=1;jettySize=auto;html=1;exitX=0;exitY=0.5;exitDx=0;exitDy=0;entryX=0.5;entryY=0;entryDx=0;entryDy=0;strokeColor=#182E3E;fontColor=#1A1A1A;endArrow=none;endFill=0;" parent="1" source="DzgOEgcIxK9TmvBQPqR1-92" target="DzgOEgcIxK9TmvBQPqR1-89" edge="1">
          <mxGeometry relative="1" as="geometry" />
        </mxCell>
        <mxCell id="DzgOEgcIxK9TmvBQPqR1-92" value="&lt;u&gt;&lt;b&gt;social security number&lt;/b&gt;&lt;/u&gt;" style="ellipse;whiteSpace=wrap;html=1;labelBackgroundColor=none;fillColor=#F5AB50;strokeColor=#909090;fontColor=#1A1A1A;rounded=0;" parent="1" vertex="1">
          <mxGeometry x="914" y="289" width="91" height="54" as="geometry" />
        </mxCell>
        <mxCell id="DzgOEgcIxK9TmvBQPqR1-117" style="orthogonalLoop=1;jettySize=auto;html=1;exitX=0;exitY=0.5;exitDx=0;exitDy=0;strokeColor=#182E3E;fontColor=#1A1A1A;endArrow=none;endFill=0;" parent="1" source="DzgOEgcIxK9TmvBQPqR1-93" edge="1">
          <mxGeometry relative="1" as="geometry">
            <mxPoint x="752.5000128495067" y="546.5263093647204" as="targetPoint" />
          </mxGeometry>
        </mxCell>
        <mxCell id="DzgOEgcIxK9TmvBQPqR1-93" value="permanent address and phone&amp;nbsp;" style="ellipse;whiteSpace=wrap;html=1;labelBackgroundColor=none;fillColor=#F5AB50;strokeColor=#909090;fontColor=#1A1A1A;rounded=0;" parent="1" vertex="1">
          <mxGeometry x="918.5" y="472" width="82" height="46" as="geometry" />
        </mxCell>
        <mxCell id="DzgOEgcIxK9TmvBQPqR1-118" style="orthogonalLoop=1;jettySize=auto;html=1;exitX=0;exitY=0.5;exitDx=0;exitDy=0;entryX=1;entryY=0;entryDx=0;entryDy=0;strokeColor=#182E3E;fontColor=#1A1A1A;endArrow=none;endFill=0;" parent="1" source="DzgOEgcIxK9TmvBQPqR1-95" target="DzgOEgcIxK9TmvBQPqR1-89" edge="1">
          <mxGeometry relative="1" as="geometry" />
        </mxCell>
        <mxCell id="DzgOEgcIxK9TmvBQPqR1-95" value="current address and phone" style="ellipse;whiteSpace=wrap;html=1;labelBackgroundColor=none;fillColor=#F5AB50;strokeColor=#909090;fontColor=#1A1A1A;rounded=0;" parent="1" vertex="1">
          <mxGeometry x="918.5" y="384" width="82" height="46" as="geometry" />
        </mxCell>
        <mxCell id="DzgOEgcIxK9TmvBQPqR1-113" style="orthogonalLoop=1;jettySize=auto;html=1;exitX=0.5;exitY=0;exitDx=0;exitDy=0;strokeColor=#182E3E;fontColor=#1A1A1A;endArrow=none;endFill=0;entryX=0.5;entryY=1;entryDx=0;entryDy=0;" parent="1" source="DzgOEgcIxK9TmvBQPqR1-96" target="DzgOEgcIxK9TmvBQPqR1-89" edge="1">
          <mxGeometry relative="1" as="geometry">
            <mxPoint x="683" y="591" as="targetPoint" />
          </mxGeometry>
        </mxCell>
        <mxCell id="DzgOEgcIxK9TmvBQPqR1-96" value="&lt;u&gt;&lt;b&gt;number&lt;/b&gt;&lt;/u&gt;" style="ellipse;whiteSpace=wrap;html=1;labelBackgroundColor=none;fillColor=#F5AB50;strokeColor=#909090;fontColor=#1A1A1A;rounded=0;" parent="1" vertex="1">
          <mxGeometry x="742" y="753" width="82" height="46" as="geometry" />
        </mxCell>
        <mxCell id="DzgOEgcIxK9TmvBQPqR1-116" style="orthogonalLoop=1;jettySize=auto;html=1;exitX=0;exitY=0.5;exitDx=0;exitDy=0;entryX=1;entryY=0.5;entryDx=0;entryDy=0;strokeColor=#182E3E;fontColor=#1A1A1A;endArrow=none;endFill=0;" parent="1" source="DzgOEgcIxK9TmvBQPqR1-97" target="DzgOEgcIxK9TmvBQPqR1-89" edge="1">
          <mxGeometry relative="1" as="geometry" />
        </mxCell>
        <mxCell id="DzgOEgcIxK9TmvBQPqR1-97" value="&lt;u&gt;birthday&lt;/u&gt;" style="ellipse;whiteSpace=wrap;html=1;labelBackgroundColor=none;fillColor=#F5AB50;strokeColor=#909090;fontColor=#1A1A1A;rounded=0;" parent="1" vertex="1">
          <mxGeometry x="918.5" y="566" width="82" height="46" as="geometry" />
        </mxCell>
        <mxCell id="DzgOEgcIxK9TmvBQPqR1-115" style="orthogonalLoop=1;jettySize=auto;html=1;exitX=0;exitY=0.5;exitDx=0;exitDy=0;entryX=1;entryY=1;entryDx=0;entryDy=0;strokeColor=#182E3E;fontColor=#1A1A1A;endArrow=none;endFill=0;" parent="1" source="DzgOEgcIxK9TmvBQPqR1-98" target="DzgOEgcIxK9TmvBQPqR1-89" edge="1">
          <mxGeometry relative="1" as="geometry" />
        </mxCell>
        <mxCell id="DzgOEgcIxK9TmvBQPqR1-98" value="&lt;u&gt;sex&lt;/u&gt;" style="ellipse;whiteSpace=wrap;html=1;labelBackgroundColor=none;fillColor=#F5AB50;strokeColor=#909090;fontColor=#1A1A1A;rounded=0;" parent="1" vertex="1">
          <mxGeometry x="918.5" y="650" width="82" height="46" as="geometry" />
        </mxCell>
        <mxCell id="rmMGKE3_KGzslC0PyUzP-37" style="rounded=0;orthogonalLoop=1;jettySize=auto;html=1;exitX=1;exitY=1;exitDx=0;exitDy=0;entryX=0.5;entryY=0;entryDx=0;entryDy=0;endArrow=none;endFill=0;" edge="1" parent="1" source="DzgOEgcIxK9TmvBQPqR1-100" target="rmMGKE3_KGzslC0PyUzP-35">
          <mxGeometry relative="1" as="geometry" />
        </mxCell>
        <mxCell id="DzgOEgcIxK9TmvBQPqR1-100" value="section" style="rounded=0;whiteSpace=wrap;html=1;strokeColor=#82b366;fillColor=#d5e8d4;" parent="1" vertex="1">
          <mxGeometry x="352" y="573" width="120" height="60" as="geometry" />
        </mxCell>
        <mxCell id="rmMGKE3_KGzslC0PyUzP-3" style="rounded=0;orthogonalLoop=1;jettySize=auto;html=1;exitX=1;exitY=0.5;exitDx=0;exitDy=0;entryX=0;entryY=0.5;entryDx=0;entryDy=0;endArrow=none;endFill=0;" edge="1" parent="1" source="DzgOEgcIxK9TmvBQPqR1-101" target="DzgOEgcIxK9TmvBQPqR1-100">
          <mxGeometry relative="1" as="geometry" />
        </mxCell>
        <mxCell id="DzgOEgcIxK9TmvBQPqR1-101" value="number of semester" style="ellipse;whiteSpace=wrap;html=1;labelBackgroundColor=none;fillColor=#F5AB50;strokeColor=#909090;fontColor=#1A1A1A;rounded=0;" parent="1" vertex="1">
          <mxGeometry x="222" y="494" width="82" height="46" as="geometry" />
        </mxCell>
        <mxCell id="rmMGKE3_KGzslC0PyUzP-2" style="rounded=0;orthogonalLoop=1;jettySize=auto;html=1;exitX=0.5;exitY=0;exitDx=0;exitDy=0;endArrow=none;endFill=0;" edge="1" parent="1" source="DzgOEgcIxK9TmvBQPqR1-102">
          <mxGeometry relative="1" as="geometry">
            <mxPoint x="562.0000128495067" y="868.6316046463817" as="targetPoint" />
          </mxGeometry>
        </mxCell>
        <mxCell id="DzgOEgcIxK9TmvBQPqR1-102" value="Theory grade&amp;nbsp;" style="ellipse;whiteSpace=wrap;html=1;labelBackgroundColor=none;fillColor=#F5AB50;strokeColor=#909090;fontColor=#1A1A1A;rounded=0;" parent="1" vertex="1">
          <mxGeometry x="438" y="912" width="82" height="46" as="geometry" />
        </mxCell>
        <mxCell id="rmMGKE3_KGzslC0PyUzP-4" style="rounded=0;orthogonalLoop=1;jettySize=auto;html=1;exitX=1;exitY=0.5;exitDx=0;exitDy=0;endArrow=none;endFill=0;entryX=0;entryY=0.5;entryDx=0;entryDy=0;" edge="1" parent="1" source="DzgOEgcIxK9TmvBQPqR1-104" target="DzgOEgcIxK9TmvBQPqR1-100">
          <mxGeometry relative="1" as="geometry">
            <mxPoint x="354.94734914679293" y="601.368408203125" as="targetPoint" />
          </mxGeometry>
        </mxCell>
        <mxCell id="DzgOEgcIxK9TmvBQPqR1-104" value="training year&amp;nbsp;" style="ellipse;whiteSpace=wrap;html=1;labelBackgroundColor=none;fillColor=#F5AB50;strokeColor=#909090;fontColor=#1A1A1A;rounded=0;" parent="1" vertex="1">
          <mxGeometry x="222" y="570" width="82" height="46" as="geometry" />
        </mxCell>
        <mxCell id="rmMGKE3_KGzslC0PyUzP-5" style="rounded=0;orthogonalLoop=1;jettySize=auto;html=1;exitX=1;exitY=0.5;exitDx=0;exitDy=0;entryX=0;entryY=0.5;entryDx=0;entryDy=0;endArrow=none;endFill=0;" edge="1" parent="1" source="DzgOEgcIxK9TmvBQPqR1-105" target="DzgOEgcIxK9TmvBQPqR1-100">
          <mxGeometry relative="1" as="geometry" />
        </mxCell>
        <mxCell id="DzgOEgcIxK9TmvBQPqR1-105" value="&lt;u&gt;&lt;b&gt;section number&lt;/b&gt;&lt;/u&gt;" style="ellipse;whiteSpace=wrap;html=1;labelBackgroundColor=none;fillColor=#F5AB50;strokeColor=#909090;fontColor=#1A1A1A;rounded=0;" parent="1" vertex="1">
          <mxGeometry x="222" y="661" width="82" height="46" as="geometry" />
        </mxCell>
        <mxCell id="DzgOEgcIxK9TmvBQPqR1-107" value="grade" style="rounded=0;whiteSpace=wrap;html=1;strokeColor=#82b366;fillColor=#d5e8d4;" parent="1" vertex="1">
          <mxGeometry x="502" y="808" width="120" height="60" as="geometry" />
        </mxCell>
        <mxCell id="rmMGKE3_KGzslC0PyUzP-1" style="rounded=0;orthogonalLoop=1;jettySize=auto;html=1;exitX=0.5;exitY=0;exitDx=0;exitDy=0;entryX=0.5;entryY=1;entryDx=0;entryDy=0;endArrow=none;endFill=0;" edge="1" parent="1" source="DzgOEgcIxK9TmvBQPqR1-110" target="DzgOEgcIxK9TmvBQPqR1-107">
          <mxGeometry relative="1" as="geometry" />
        </mxCell>
        <mxCell id="DzgOEgcIxK9TmvBQPqR1-110" value="Practice grade" style="ellipse;whiteSpace=wrap;html=1;labelBackgroundColor=none;fillColor=#F5AB50;strokeColor=#909090;fontColor=#1A1A1A;rounded=0;" parent="1" vertex="1">
          <mxGeometry x="584" y="912" width="82" height="46" as="geometry" />
        </mxCell>
        <mxCell id="rmMGKE3_KGzslC0PyUzP-8" style="rounded=0;orthogonalLoop=1;jettySize=auto;html=1;exitX=1;exitY=0.5;exitDx=0;exitDy=0;endArrow=none;endFill=0;" edge="1" parent="1" source="rmMGKE3_KGzslC0PyUzP-6">
          <mxGeometry relative="1" as="geometry">
            <mxPoint x="-36" y="-197" as="targetPoint" />
          </mxGeometry>
        </mxCell>
        <mxCell id="rmMGKE3_KGzslC0PyUzP-6" value="Office phone" style="ellipse;whiteSpace=wrap;html=1;labelBackgroundColor=none;fillColor=#F5AB50;strokeColor=#909090;fontColor=#1A1A1A;rounded=0;" vertex="1" parent="1">
          <mxGeometry x="-222" y="-403" width="82" height="46" as="geometry" />
        </mxCell>
        <mxCell id="rmMGKE3_KGzslC0PyUzP-10" style="rounded=0;orthogonalLoop=1;jettySize=auto;html=1;exitX=1;exitY=0.5;exitDx=0;exitDy=0;endArrow=none;endFill=0;entryX=0;entryY=0.5;entryDx=0;entryDy=0;" edge="1" parent="1" source="rmMGKE3_KGzslC0PyUzP-9" target="DzgOEgcIxK9TmvBQPqR1-1">
          <mxGeometry relative="1" as="geometry">
            <mxPoint x="-53" y="-174" as="targetPoint" />
          </mxGeometry>
        </mxCell>
        <mxCell id="rmMGKE3_KGzslC0PyUzP-9" value="Instructor ID" style="ellipse;whiteSpace=wrap;html=1;labelBackgroundColor=none;fillColor=#F5AB50;strokeColor=#909090;fontColor=#1A1A1A;rounded=0;" vertex="1" parent="1">
          <mxGeometry x="-226" y="-70" width="82" height="46" as="geometry" />
        </mxCell>
        <mxCell id="DzgOEgcIxK9TmvBQPqR1-18" value="Instructor birthday" style="ellipse;whiteSpace=wrap;html=1;labelBackgroundColor=none;fillColor=#F5AB50;strokeColor=#909090;fontColor=#1A1A1A;rounded=0;" parent="1" vertex="1">
          <mxGeometry x="559" y="-396" width="82" height="46" as="geometry" />
        </mxCell>
        <mxCell id="rmMGKE3_KGzslC0PyUzP-17" style="rounded=0;orthogonalLoop=1;jettySize=auto;html=1;exitX=1;exitY=0.5;exitDx=0;exitDy=0;entryX=0;entryY=0.5;entryDx=0;entryDy=0;endArrow=none;endFill=0;" edge="1" parent="1" source="rmMGKE3_KGzslC0PyUzP-15" target="DzgOEgcIxK9TmvBQPqR1-33">
          <mxGeometry relative="1" as="geometry" />
        </mxCell>
        <mxCell id="rmMGKE3_KGzslC0PyUzP-15" value="havve" style="rhombus;whiteSpace=wrap;html=1;labelBackgroundColor=none;fillColor=#dae8fc;strokeColor=#6c8ebf;rounded=0;" vertex="1" parent="1">
          <mxGeometry x="651" y="-231" width="80" height="80" as="geometry" />
        </mxCell>
        <mxCell id="rmMGKE3_KGzslC0PyUzP-21" style="rounded=0;orthogonalLoop=1;jettySize=auto;html=1;exitX=1;exitY=1;exitDx=0;exitDy=0;entryX=0;entryY=0.5;entryDx=0;entryDy=0;endArrow=none;endFill=0;" edge="1" parent="1" source="rmMGKE3_KGzslC0PyUzP-20" target="DzgOEgcIxK9TmvBQPqR1-80">
          <mxGeometry relative="1" as="geometry" />
        </mxCell>
        <mxCell id="rmMGKE3_KGzslC0PyUzP-22" style="rounded=0;orthogonalLoop=1;jettySize=auto;html=1;exitX=0;exitY=0;exitDx=0;exitDy=0;entryX=0.5;entryY=1;entryDx=0;entryDy=0;endArrow=none;endFill=0;" edge="1" parent="1" source="rmMGKE3_KGzslC0PyUzP-20" target="DzgOEgcIxK9TmvBQPqR1-11">
          <mxGeometry relative="1" as="geometry" />
        </mxCell>
        <mxCell id="rmMGKE3_KGzslC0PyUzP-20" value="havve" style="rhombus;whiteSpace=wrap;html=1;labelBackgroundColor=none;fillColor=#dae8fc;strokeColor=#6c8ebf;rounded=0;" vertex="1" parent="1">
          <mxGeometry x="482" y="1" width="80" height="80" as="geometry" />
        </mxCell>
        <mxCell id="rmMGKE3_KGzslC0PyUzP-24" style="rounded=0;orthogonalLoop=1;jettySize=auto;html=1;exitX=1;exitY=0;exitDx=0;exitDy=0;entryX=0.5;entryY=1;entryDx=0;entryDy=0;endArrow=none;endFill=0;" edge="1" parent="1" source="rmMGKE3_KGzslC0PyUzP-23" target="DzgOEgcIxK9TmvBQPqR1-80">
          <mxGeometry relative="1" as="geometry" />
        </mxCell>
        <mxCell id="rmMGKE3_KGzslC0PyUzP-25" style="rounded=0;orthogonalLoop=1;jettySize=auto;html=1;exitX=0.5;exitY=1;exitDx=0;exitDy=0;entryX=0.5;entryY=0;entryDx=0;entryDy=0;endArrow=none;endFill=0;" edge="1" parent="1" source="rmMGKE3_KGzslC0PyUzP-23" target="DzgOEgcIxK9TmvBQPqR1-89">
          <mxGeometry relative="1" as="geometry" />
        </mxCell>
        <mxCell id="rmMGKE3_KGzslC0PyUzP-23" value="assigned to&amp;nbsp;" style="rhombus;whiteSpace=wrap;html=1;labelBackgroundColor=none;fillColor=#dae8fc;strokeColor=#6c8ebf;rounded=0;" vertex="1" parent="1">
          <mxGeometry x="651" y="232" width="80" height="80" as="geometry" />
        </mxCell>
        <mxCell id="rmMGKE3_KGzslC0PyUzP-29" style="rounded=0;orthogonalLoop=1;jettySize=auto;html=1;entryX=0.5;entryY=0;entryDx=0;entryDy=0;endArrow=none;endFill=0;exitX=0.5;exitY=1;exitDx=0;exitDy=0;" edge="1" parent="1" source="rmMGKE3_KGzslC0PyUzP-27" target="DzgOEgcIxK9TmvBQPqR1-100">
          <mxGeometry relative="1" as="geometry">
            <mxPoint x="403" y="448" as="sourcePoint" />
          </mxGeometry>
        </mxCell>
        <mxCell id="rmMGKE3_KGzslC0PyUzP-27" value="&lt;span style=&quot;font-size:11.0pt;line-height:&lt;br/&gt;107%;font-family:&amp;quot;Calibri&amp;quot;,sans-serif;mso-ascii-theme-font:minor-latin;&lt;br/&gt;mso-fareast-font-family:Calibri;mso-fareast-theme-font:minor-latin;mso-hansi-theme-font:&lt;br/&gt;minor-latin;mso-bidi-font-family:Arial;mso-bidi-theme-font:minor-bidi;&lt;br/&gt;mso-ansi-language:EN-US;mso-fareast-language:EN-US;mso-bidi-language:AR-SA&quot; lang=&quot;EN-US&quot;&gt;arranged&amp;nbsp;&lt;/span&gt;" style="rhombus;whiteSpace=wrap;html=1;strokeColor=#6c8ebf;fillColor=#dae8fc;" vertex="1" parent="1">
          <mxGeometry x="269" y="308" width="80" height="80" as="geometry" />
        </mxCell>
        <mxCell id="rmMGKE3_KGzslC0PyUzP-33" style="rounded=0;orthogonalLoop=1;jettySize=auto;html=1;exitX=0.5;exitY=1;exitDx=0;exitDy=0;entryX=0.5;entryY=0;entryDx=0;entryDy=0;endArrow=none;endFill=0;" edge="1" parent="1" source="rmMGKE3_KGzslC0PyUzP-32" target="DzgOEgcIxK9TmvBQPqR1-100">
          <mxGeometry relative="1" as="geometry" />
        </mxCell>
        <mxCell id="rmMGKE3_KGzslC0PyUzP-32" value="teach" style="rhombus;whiteSpace=wrap;html=1;strokeColor=#6c8ebf;fillColor=#dae8fc;" vertex="1" parent="1">
          <mxGeometry x="494" y="350" width="80" height="80" as="geometry" />
        </mxCell>
        <mxCell id="rmMGKE3_KGzslC0PyUzP-36" style="rounded=0;orthogonalLoop=1;jettySize=auto;html=1;exitX=0.5;exitY=1;exitDx=0;exitDy=0;entryX=0.5;entryY=0;entryDx=0;entryDy=0;endArrow=none;endFill=0;" edge="1" parent="1" source="rmMGKE3_KGzslC0PyUzP-35" target="DzgOEgcIxK9TmvBQPqR1-107">
          <mxGeometry relative="1" as="geometry" />
        </mxCell>
        <mxCell id="rmMGKE3_KGzslC0PyUzP-35" value="record" style="rhombus;whiteSpace=wrap;html=1;strokeColor=#6c8ebf;fillColor=#dae8fc;" vertex="1" parent="1">
          <mxGeometry x="522" y="678" width="80" height="80" as="geometry" />
        </mxCell>
      </root>
    </mxGraphModel>
  </diagram>
</mxfile>
